name Walk7.mot
datacolumns 19
datarows 20
range 2.94200000 2.96100000
endheader

                time	   L_ground_force_vx	   L_ground_force_vy	   L_ground_force_vz	   L_ground_force_px	   L_ground_force_py	   L_ground_force_pz	   R_ground_force_vx	   R_ground_force_vy	   R_ground_force_vz	   R_ground_force_px	   R_ground_force_py	   R_ground_force_pz	   L_ground_torque_x	   L_ground_torque_y	   L_ground_torque_z	   R_ground_torque_x	   R_ground_torque_y	   R_ground_torque_z	
          2.94200000	          0.00000000	          0.00000000	          0.00000000	          0.00000000	          0.00000000	          0.00000000	         -1.86368201	        729.65406558	         52.93605124	         -0.28762024	          0.00000000	         -0.06262425	          0.00000000	          0.00000000	          0.00000000	          0.00000000	          2.70414195	          0.00000000	
          2.94300000	          0.00000000	          0.00000000	          0.00000000	          0.00000000	          0.00000000	          0.00000000	         -1.31499038	        730.64715644	         53.10528890	         -0.28755979	          0.00000000	         -0.06272898	          0.00000000	          0.00000000	          0.00000000	          0.00000000	          2.68326141	          0.00000000	
          2.94400000	          0.00000000	          0.00000000	          0.00000000	          0.00000000	          0.00000000	          0.00000000	         -0.76812446	        731.61516431	         53.27151560	         -0.28754208	          0.00000000	         -0.06282107	          0.00000000	          0.00000000	          0.00000000	          0.00000000	          2.65302871	          0.00000000	
          2.94500000	          0.00000000	          0.00000000	          0.00000000	          0.00000000	          0.00000000	          0.00000000	         -0.20520502	        732.52849399	         53.43073225	         -0.28753033	          0.00000000	         -0.06288689	          0.00000000	          0.00000000	          0.00000000	          0.00000000	          2.61843388	          0.00000000	
          2.94600000	          0.00000000	          0.00000000	          0.00000000	          0.00000000	          0.00000000	          0.00000000	          0.38393715	        733.39386349	         53.58597246	         -0.28749027	          0.00000000	         -0.06292746	          0.00000000	          0.00000000	          0.00000000	          0.00000000	          2.58712946	          0.00000000	
          2.94700000	          0.00000000	          0.00000000	          0.00000000	          0.00000000	          0.00000000	          0.00000000	          1.00041667	        734.25037199	         53.74496884	         -0.28740805	          0.00000000	         -0.06294520	          0.00000000	          0.00000000	          0.00000000	          0.00000000	          2.56738622	          0.00000000	
          2.94800000	          0.00000000	          0.00000000	          0.00000000	          0.00000000	          0.00000000	          0.00000000	          1.63882963	        735.13456583	         53.91272412	         -0.28729068	          0.00000000	         -0.06293803	          0.00000000	          0.00000000	          0.00000000	          0.00000000	          2.56336092	          0.00000000	
          2.94900000	          0.00000000	          0.00000000	          0.00000000	          0.00000000	          0.00000000	          0.00000000	          2.28962337	        736.05251842	         54.08455745	         -0.28715105	          0.00000000	         -0.06290892	          0.00000000	          0.00000000	          0.00000000	          0.00000000	          2.57346879	          0.00000000	
          2.95000000	          0.00000000	          0.00000000	          0.00000000	          0.00000000	          0.00000000	          0.00000000	          2.94204405	        736.98718763	         54.25505520	         -0.28699589	          0.00000000	         -0.06288117	          0.00000000	          0.00000000	          0.00000000	          0.00000000	          2.59384684	          0.00000000	
          2.95100000	          0.00000000	          0.00000000	          0.00000000	          0.00000000	          0.00000000	          0.00000000	          3.58681993	        737.92626063	         54.42816122	         -0.28682903	          0.00000000	         -0.06289087	          0.00000000	          0.00000000	          0.00000000	          0.00000000	          2.62067291	          0.00000000	
          2.95200000	          0.00000000	          0.00000000	          0.00000000	          0.00000000	          0.00000000	          0.00000000	          4.21888047	        738.86746407	         54.61008223	         -0.28665734	          0.00000000	         -0.06295614	          0.00000000	          0.00000000	          0.00000000	          0.00000000	          2.64754043	          0.00000000	
          2.95300000	          0.00000000	          0.00000000	          0.00000000	          0.00000000	          0.00000000	          0.00000000	          4.84105317	        739.81175668	         54.80018794	         -0.28648998	          0.00000000	         -0.06305742	          0.00000000	          0.00000000	          0.00000000	          0.00000000	          2.66349022	          0.00000000	
          2.95400000	          0.00000000	          0.00000000	          0.00000000	          0.00000000	          0.00000000	          0.00000000	          5.46114616	        740.77416130	         54.99172389	         -0.28634226	          0.00000000	         -0.06314993	          0.00000000	          0.00000000	          0.00000000	          0.00000000	          2.65875673	          0.00000000	
          2.95500000	          0.00000000	          0.00000000	          0.00000000	          0.00000000	          0.00000000	          0.00000000	          6.08308176	        741.77538026	         55.17565778	         -0.28623605	          0.00000000	         -0.06320522	          0.00000000	          0.00000000	          0.00000000	          0.00000000	          2.63330905	          0.00000000	
          2.95600000	          0.00000000	          0.00000000	          0.00000000	          0.00000000	          0.00000000	          0.00000000	          6.70553982	        742.79572699	         55.34626843	         -0.28618049	          0.00000000	         -0.06323876	          0.00000000	          0.00000000	          0.00000000	          0.00000000	          2.59685459	          0.00000000	
          2.95700000	          0.00000000	          0.00000000	          0.00000000	          0.00000000	          0.00000000	          0.00000000	          7.32663196	        743.76586110	         55.50464373	         -0.28615754	          0.00000000	         -0.06328222	          0.00000000	          0.00000000	          0.00000000	          0.00000000	          2.56045058	          0.00000000	
          2.95800000	          0.00000000	          0.00000000	          0.00000000	          0.00000000	          0.00000000	          0.00000000	          7.94626697	        744.63086137	         55.65450894	         -0.28613629	          0.00000000	         -0.06334641	          0.00000000	          0.00000000	          0.00000000	          0.00000000	          2.52977286	          0.00000000	
          2.95900000	          0.00000000	          0.00000000	          0.00000000	          0.00000000	          0.00000000	          0.00000000	          8.56950542	        745.41404189	         55.79863482	         -0.28609835	          0.00000000	         -0.06342324	          0.00000000	          0.00000000	          0.00000000	          0.00000000	          2.50507366	          0.00000000	
          2.96000000	          0.00000000	          0.00000000	          0.00000000	          0.00000000	          0.00000000	          0.00000000	          9.20654347	        746.21659372	         55.94221303	         -0.28604651	          0.00000000	         -0.06350080	          0.00000000	          0.00000000	          0.00000000	          0.00000000	          2.48466735	          0.00000000	
          2.96100000	          0.00000000	          0.00000000	          0.00000000	          0.00000000	          0.00000000	          0.00000000	          9.86344802	        747.16378484	         56.09613320	         -0.28599321	          0.00000000	         -0.06356968	          0.00000000	          0.00000000	          0.00000000	          0.00000000	          2.46657854	          0.00000000	
